<?xml version="1.0" encoding="UTF-8"?>
<svg width="9px" height="12px" viewBox="0 0 9 12" version="1.1" xmlns="http://www.w3.org/2000/svg" xmlns:xlink="http://www.w3.org/1999/xlink">
    <!-- Generator: Sketch 63.1 (92452) - https://sketch.com -->
    <title>Path</title>
    <desc>Created with Sketch.</desc>
    <g id="Page-2" stroke="none" stroke-width="1" fill="none" fill-rule="evenodd">
        <g id="iPhone-8-Copy-3" transform="translate(-45.000000, -589.000000)" fill="#FFFFFF" fill-rule="nonzero">
            <g id="Group" transform="translate(28.000000, 573.000000)">
                <path d="M26.8943283,22.2917107 C26.9010957,22.2833342 26.9089152,22.2757343 26.9151087,22.2668873 C26.9288826,22.2472403 26.9400261,22.2259933 26.9507152,22.2043934 C26.9538717,22.1979699 26.9581283,22.1922052 26.9609978,22.1857817 C26.9729065,22.1585583 26.9820174,22.1299467 26.9885457,22.1004174 C26.9889043,22.0988174 26.9895978,22.0974292 26.9899565,22.0958292 C26.9965087,22.0649352 27,22.0328648 27,22.0000179 C27,21.9671709 26.9965087,21.9351005 26.9899565,21.9042065 C26.9895978,21.9026065 26.9889043,21.9012183 26.9885457,21.8996183 C26.9820174,21.870089 26.9729065,21.8414774 26.9609978,21.814254 C26.9581283,21.8078305 26.9538717,21.8020658 26.9507152,21.7956423 C26.9400261,21.7740424 26.9288826,21.7527954 26.9151087,21.7331485 C26.9089152,21.7243014 26.9010957,21.716725 26.8943283,21.708325 C26.8813196,21.692231 26.8684543,21.6762781 26.8535087,21.6620194 C26.851763,21.6604194 26.8505196,21.6583488 26.8487739,21.6567253 L23.022687,18.1273293 C22.8301391,17.9494712 22.5272565,17.9591418 22.346737,18.1488115 C22.1660978,18.3383872 22.1758065,18.6361741 22.3685696,18.8139144 L25.312313,21.5294317 L16.4782609,21.5294317 C16.2141413,21.5294317 16,21.7401367 16,22.0000179 C16,22.2598991 16.2141413,22.470604 16.4782609,22.470604 L25.312313,22.470604 L22.3685935,25.1861213 C22.1758065,25.3638617 22.1661217,25.6616486 22.3467609,25.8512242 C22.4408826,25.9501414 22.5681478,26 22.6957717,26 C22.8129935,26 22.9304543,25.9578355 23.0227109,25.8727065 L26.8487978,22.3433104 C26.8505435,22.3417105 26.851787,22.3396399 26.8535326,22.3380164 C26.8684783,22.3237811 26.8813196,22.3078047 26.8943283,22.2917107 Z" id="Path" transform="translate(21.500000, 22.000000) rotate(-90.000000) translate(-21.500000, -22.000000) "></path>
            </g>
        </g>
    </g>
</svg>