<?xml version="1.0" encoding="UTF-8"?>
<svg width="14px" height="9px" viewBox="0 0 14 9" version="1.1" xmlns="http://www.w3.org/2000/svg" xmlns:xlink="http://www.w3.org/1999/xlink">
    <!-- Generator: Sketch 63.1 (92452) - https://sketch.com -->
    <title>Combined Shape</title>
    <desc>Created with Sketch.</desc>
    <g id="Page-2" stroke="none" stroke-width="1" fill="none" fill-rule="evenodd">
        <g id="iPhone-8-Copy-22" transform="translate(-128.000000, -625.000000)" fill="#FFFFFF">
            <g id="Group-2" transform="translate(78.000000, 625.000000)">
                <path d="M55,-9.13381717e-13 L55.0748532,0.0363730015 C56.1097047,0.168323759 57.0347576,0.651759306 57.7265367,1.36320449 L64,4.5 L57.7255534,7.6378064 C57.0338812,8.34869863 56.1092145,8.83173875 55.0748532,8.963627 L55,9 L55.0007074,8.97245735 C54.8363124,8.99065656 54.6692473,9 54.5,9 C52.0147186,9 50,6.98528137 50,4.5 C50,2.01471863 52.0147186,-3.06037904e-15 54.5,-3.06037904e-15 C54.6692473,-3.06037904e-15 54.8363124,0.00934344119 55.0007074,0.0275426493 L55,-9.13381717e-13 Z" id="Combined-Shape"></path>
            </g>
        </g>
    </g>
</svg>